REM DIRINDEX 1\2\4\18,1\2\4\19,1\2\5\20,1\2\5\21,1\2\6\22,1\2\6\23,1\2\7\24,1\2\8\25,1\2\9\26,1\2\10\27,1\2\10\28,1\3\11\29,1\3\11\30,1\3\11\31,1\3\11\32,1\3\12\33,1\3\12\34,1\3\12\35,1\3\12\36,1\3\13\37,1\3\13\38,1\3\13\39,1\3\13\40,1\3\14\41,1\3\14\42,1\3\15\43,1\3\15\44,1\3\16\45,1\3\16\46,1\3\17\47,1\3\17\48,1\3\17\49,1\3\17\50
REM DIRNAME folder01,folder02,folder03,folder04,folder05,folder06,folder07,folder08,folder09,folder10,folder11,folder12,folder13,folder14,folder15,folder16,folder17,folder18,folder19,folder20,folder21,folder22,folder23,folder24,folder25,folder26,folder27,folder28,folder29,folder30,folder31,folder32,folder33,folder34,folder35,folder36,folder37,folder38,folder39,folder40,folder41,folder42,folder43,folder44,folder45,folder46,folder47,folder48,folder49,folder50
TITLE ""
FILE "02.mp3" MP3
  TRACK 01 AUDIO
    TITLE "0:"
    INDEX 01 00:00:00
  TRACK 02 AUDIO
    TITLE "18:cjc135_0201"
    INDEX 01 00:00:15
  TRACK 03 AUDIO
    TITLE "0:"
    INDEX 01 00:01:09
  TRACK 04 AUDIO
    TITLE "19:cjc135_0202"
    INDEX 01 00:01:36
  TRACK 05 AUDIO
    TITLE "0:"
    INDEX 01 00:03:00
  TRACK 06 AUDIO
    TITLE "18:cjc135_0203"
    INDEX 01 00:03:74
  TRACK 07 AUDIO
    TITLE "0:"
    INDEX 01 00:05:09
  TRACK 08 AUDIO
    TITLE "19:cjc135_0204"
    INDEX 01 00:05:32
  TRACK 09 AUDIO
    TITLE "0:"
    INDEX 01 00:08:11
  TRACK 10 AUDIO
    TITLE "18:cjc135_0205"
    INDEX 01 00:09:10
  TRACK 11 AUDIO
    TITLE "0:"
    INDEX 01 00:10:25
  TRACK 12 AUDIO
    TITLE "19:cjc135_0206"
    INDEX 01 00:10:53
  TRACK 13 AUDIO
    TITLE "0:"
    INDEX 01 00:12:24
  TRACK 14 AUDIO
    TITLE "18:cjc135_0207"
    INDEX 01 00:13:22
  TRACK 15 AUDIO
    TITLE "0:"
    INDEX 01 00:14:31
  TRACK 16 AUDIO
    TITLE "19:cjc135_0208"
    INDEX 01 00:14:56
  TRACK 17 AUDIO
    TITLE "0:"
    INDEX 01 00:16:55
  TRACK 18 AUDIO
    TITLE "18:cjc135_0209"
    INDEX 01 00:17:55
  TRACK 19 AUDIO
    TITLE "0:"
    INDEX 01 00:18:60
  TRACK 20 AUDIO
    TITLE "19:cjc135_0210"
    INDEX 01 00:19:11
  TRACK 21 AUDIO
    TITLE "0:"
    INDEX 01 00:21:06
  TRACK 22 AUDIO
    TITLE "18:cjc135_0211"
    INDEX 01 00:22:07
  TRACK 23 AUDIO
    TITLE "0:"
    INDEX 01 00:23:14
  TRACK 24 AUDIO
    TITLE "19:cjc135_0212"
    INDEX 01 00:23:40
  TRACK 25 AUDIO
    TITLE "0:"
    INDEX 01 00:25:37
  TRACK 26 AUDIO
    TITLE "18:cjc135_0213"
    INDEX 01 00:26:38
  TRACK 27 AUDIO
    TITLE "0:"
    INDEX 01 00:27:45
  TRACK 28 AUDIO
    TITLE "19:cjc135_0214"
    INDEX 01 00:27:71
  TRACK 29 AUDIO
    TITLE "0:"
    INDEX 01 00:30:03
  TRACK 30 AUDIO
    TITLE "18:cjc135_0215"
    INDEX 01 00:31:02
  TRACK 31 AUDIO
    TITLE "0:"
    INDEX 01 00:32:05
  TRACK 32 AUDIO
    TITLE "19:cjc135_0216"
    INDEX 01 00:32:29
  TRACK 33 AUDIO
    TITLE "0:"
    INDEX 01 00:35:06
  TRACK 34 AUDIO
    TITLE "18:cjc135_0217"
    INDEX 01 00:36:07
  TRACK 35 AUDIO
    TITLE "0:"
    INDEX 01 00:37:05
  TRACK 36 AUDIO
    TITLE "19:cjc135_0218"
    INDEX 01 00:37:30
  TRACK 37 AUDIO
    TITLE "0:"
    INDEX 01 00:39:15
  TRACK 38 AUDIO
    TITLE "18:cjc135_0219"
    INDEX 01 00:40:15
  TRACK 39 AUDIO
    TITLE "0:"
    INDEX 01 00:41:22
  TRACK 40 AUDIO
    TITLE "19:cjc135_0220"
    INDEX 01 00:41:47
  TRACK 41 AUDIO
    TITLE "0:"
    INDEX 01 00:43:29
  TRACK 42 AUDIO
    TITLE "18:cjc135_0221"
    INDEX 01 00:44:30
  TRACK 43 AUDIO
    TITLE "0:"
    INDEX 01 00:45:30
  TRACK 44 AUDIO
    TITLE "19:cjc135_0222"
    INDEX 01 00:45:57
  TRACK 45 AUDIO
    TITLE "0:"
    INDEX 01 00:47:70
  TRACK 46 AUDIO
    TITLE "18:cjc135_0223"
    INDEX 01 00:48:69
  TRACK 47 AUDIO
    TITLE "0:"
    INDEX 01 00:50:05
  TRACK 48 AUDIO
    TITLE "19:cjc135_0224"
    INDEX 01 00:50:29
  TRACK 49 AUDIO
    TITLE "0:"
    INDEX 01 00:52:59
  TRACK 50 AUDIO
    TITLE "18:cjc135_0225"
    INDEX 01 00:53:57
  TRACK 51 AUDIO
    TITLE "0:"
    INDEX 01 00:54:66
  TRACK 52 AUDIO
    TITLE "19:cjc135_0226"
    INDEX 01 00:55:16
  TRACK 53 AUDIO
    TITLE "0:"
    INDEX 01 00:57:31
  TRACK 54 AUDIO
    TITLE "18:cjc135_0227"
    INDEX 01 00:58:30
  TRACK 55 AUDIO
    TITLE "0:"
    INDEX 01 00:59:32
  TRACK 56 AUDIO
    TITLE "19:cjc135_0228"
    INDEX 01 00:59:57
  TRACK 57 AUDIO
    TITLE "0:"
    INDEX 01 01:02:44
  TRACK 58 AUDIO
    TITLE "18:cjc135_0229"
    INDEX 01 01:03:45
  TRACK 59 AUDIO
    TITLE "0:"
    INDEX 01 01:04:56
  TRACK 60 AUDIO
    TITLE "19:cjc135_0230"
    INDEX 01 01:05:05
  TRACK 61 AUDIO
    TITLE "0:"
    INDEX 01 01:07:19
  TRACK 62 AUDIO
    TITLE "18:cjc135_0231"
    INDEX 01 01:08:17
  TRACK 63 AUDIO
    TITLE "0:"
    INDEX 01 01:09:14
  TRACK 64 AUDIO
    TITLE "19:cjc135_0232"
    INDEX 01 01:09:40
  TRACK 65 AUDIO
    TITLE "0:"
    INDEX 01 01:11:17
  TRACK 66 AUDIO
    TITLE "18:cjc135_0233"
    INDEX 01 01:12:17
  TRACK 67 AUDIO
    TITLE "0:"
    INDEX 01 01:13:24
  TRACK 68 AUDIO
    TITLE "19:cjc135_0234"
    INDEX 01 01:13:47
  TRACK 69 AUDIO
    TITLE "0:"
    INDEX 01 01:15:70
  TRACK 70 AUDIO
    TITLE "18:cjc135_0235"
    INDEX 01 01:16:69
  TRACK 71 AUDIO
    TITLE "0:"
    INDEX 01 01:18:07
  TRACK 72 AUDIO
    TITLE "19:cjc135_0236"
    INDEX 01 01:18:31
  TRACK 73 AUDIO
    TITLE "0:"
    INDEX 01 01:21:37
  TRACK 74 AUDIO
    TITLE "18:cjc135_0237"
    INDEX 01 01:22:37
  TRACK 75 AUDIO
    TITLE "0:"
    INDEX 01 01:23:44
  TRACK 76 AUDIO
    TITLE "19:cjc135_0238"
    INDEX 01 01:23:67
  TRACK 77 AUDIO
    TITLE "0:"
    INDEX 01 01:25:41
  TRACK 78 AUDIO
    TITLE "18:cjc135_0239"
    INDEX 01 01:26:40
  TRACK 79 AUDIO
    TITLE "0:"
    INDEX 01 01:27:36
  TRACK 80 AUDIO
    TITLE "19:cjc135_0240"
    INDEX 01 01:27:59
  TRACK 81 AUDIO
    TITLE "0:"
    INDEX 01 01:29:66
  TRACK 82 AUDIO
    TITLE "18:cjc135_0241"
    INDEX 01 01:30:66
  TRACK 83 AUDIO
    TITLE "0:"
    INDEX 01 01:31:67
  TRACK 84 AUDIO
    TITLE "19:cjc135_0242"
    INDEX 01 01:32:17
  TRACK 85 AUDIO
    TITLE "0:"
    INDEX 01 01:34:10
  TRACK 86 AUDIO
    TITLE "18:cjc135_0243"
    INDEX 01 01:35:10
  TRACK 87 AUDIO
    TITLE "0:"
    INDEX 01 01:36:15
  TRACK 88 AUDIO
    TITLE "19:cjc135_0244"
    INDEX 01 01:36:39
  TRACK 89 AUDIO
    TITLE "0:"
    INDEX 01 01:38:51
  TRACK 90 AUDIO
    TITLE "18:cjc135_0245"
    INDEX 01 01:39:49
  TRACK 91 AUDIO
    TITLE "0:"
    INDEX 01 01:40:50
  TRACK 92 AUDIO
    TITLE "19:cjc135_0246"
    INDEX 01 01:40:74
  TRACK 93 AUDIO
    TITLE "0:"
    INDEX 01 01:43:21
  TRACK 94 AUDIO
    TITLE "18:cjc135_0247"
    INDEX 01 01:44:21
  TRACK 95 AUDIO
    TITLE "0:"
    INDEX 01 01:45:32
  TRACK 96 AUDIO
    TITLE "19:cjc135_0248"
    INDEX 01 01:45:57
  TRACK 97 AUDIO
    TITLE "0:"
    INDEX 01 01:47:52
  TRACK 98 AUDIO
    TITLE "18:cjc135_0249"
    INDEX 01 01:48:52
  TRACK 99 AUDIO
    TITLE "0:"
    INDEX 01 01:49:69
  TRACK 100 AUDIO
    TITLE "19:cjc135_0250"
    INDEX 01 01:50:17
  TRACK 101 AUDIO
    TITLE "0:"
    INDEX 01 01:52:16
  TRACK 102 AUDIO
    TITLE "18:cjc135_0251"
    INDEX 01 01:53:18
  TRACK 103 AUDIO
    TITLE "0:"
    INDEX 01 01:54:23
  TRACK 104 AUDIO
    TITLE "19:cjc135_0252"
    INDEX 01 01:54:46
  TRACK 105 AUDIO
    TITLE "0:"
    INDEX 01 01:57:19
  TRACK 106 AUDIO
    TITLE "18:cjc135_0253"
    INDEX 01 01:58:17
  TRACK 107 AUDIO
    TITLE "0:"
    INDEX 01 01:59:26
  TRACK 108 AUDIO
    TITLE "19:cjc135_0254"
    INDEX 01 01:59:50
  TRACK 109 AUDIO
    TITLE "0:"
    INDEX 01 02:01:37
  TRACK 110 AUDIO
    TITLE "18:cjc135_0255"
    INDEX 01 02:02:36
  TRACK 111 AUDIO
    TITLE "0:"
    INDEX 01 02:03:55
  TRACK 112 AUDIO
    TITLE "19:cjc135_0256"
    INDEX 01 02:04:06
  TRACK 113 AUDIO
    TITLE "0:"
    INDEX 01 02:05:74
  TRACK 114 AUDIO
    TITLE "18:cjc135_0257"
    INDEX 01 02:07:00
  TRACK 115 AUDIO
    TITLE "0:"
    INDEX 01 02:07:67
  TRACK 116 AUDIO
    TITLE "19:cjc135_0258"
    INDEX 01 02:08:17
  TRACK 117 AUDIO
    TITLE "0:"
    INDEX 01 02:11:04
  TRACK 118 AUDIO
    TITLE "18:cjc135_0259"
    INDEX 01 02:12:05
  TRACK 119 AUDIO
    TITLE "0:"
    INDEX 01 02:13:14
  TRACK 120 AUDIO
    TITLE "19:cjc135_0260"
    INDEX 01 02:13:38
  TRACK 121 AUDIO
    TITLE "0:"
    INDEX 01 02:16:07
  TRACK 122 AUDIO
    TITLE "18:cjc135_0261"
    INDEX 01 02:17:04
  TRACK 123 AUDIO
    TITLE "0:"
    INDEX 01 02:18:06
  TRACK 124 AUDIO
    TITLE "19:cjc135_0262"
    INDEX 01 02:18:29
  TRACK 125 AUDIO
    TITLE "0:"
    INDEX 01 02:20:24
  TRACK 126 AUDIO
    TITLE "18:cjc135_0263"
    INDEX 01 02:21:24
  TRACK 127 AUDIO
    TITLE "0:"
    INDEX 01 02:22:15
  TRACK 128 AUDIO
    TITLE "19:cjc135_0264"
    INDEX 01 02:22:35
  TRACK 129 AUDIO
    TITLE "0:"
    INDEX 01 02:23:68
  TRACK 130 AUDIO
    TITLE "18:cjc135_0265"
    INDEX 01 02:24:69
  TRACK 131 AUDIO
    TITLE "0:"
    INDEX 01 02:26:05
  TRACK 132 AUDIO
    TITLE "19:cjc135_0266"
    INDEX 01 02:26:29
  TRACK 133 AUDIO
    TITLE "0:"
    INDEX 01 02:28:26
  TRACK 134 AUDIO
    TITLE "18:cjc135_0267"
    INDEX 01 02:29:25
  TRACK 135 AUDIO
    TITLE "0:"
    INDEX 01 02:30:36
  TRACK 136 AUDIO
    TITLE "19:cjc135_0268"
    INDEX 01 02:30:62
  TRACK 137 AUDIO
    TITLE "0:"
    INDEX 01 02:32:63
  TRACK 138 AUDIO
    TITLE "18:cjc135_0269"
    INDEX 01 02:33:62
  TRACK 139 AUDIO
    TITLE "0:"
    INDEX 01 02:34:67
  TRACK 140 AUDIO
    TITLE "19:cjc135_0270"
    INDEX 01 02:35:18
  TRACK 141 AUDIO
    TITLE "0:"
    INDEX 01 02:36:57
  TRACK 142 AUDIO
    TITLE "18:cjc135_0271"
    INDEX 01 02:37:58
  TRACK 143 AUDIO
    TITLE "0:"
    INDEX 01 02:38:57
  TRACK 144 AUDIO
    TITLE "19:cjc135_0272"
    INDEX 01 02:39:08
  TRACK 145 AUDIO
    TITLE "0:"
    INDEX 01 02:40:41
  TRACK 146 AUDIO
    TITLE "18:cjc135_0273"
    INDEX 01 02:41:42
  TRACK 147 AUDIO
    TITLE "0:"
    INDEX 01 02:42:49
  TRACK 148 AUDIO
    TITLE "19:cjc135_0274"
    INDEX 01 02:43:00
  TRACK 149 AUDIO
    TITLE "0:"
    INDEX 01 02:45:36
  TRACK 150 AUDIO
    TITLE "18:cjc135_0275"
    INDEX 01 02:46:35
  TRACK 151 AUDIO
    TITLE "0:"
    INDEX 01 02:47:29
  TRACK 152 AUDIO
    TITLE "19:cjc135_0276"
    INDEX 01 02:47:54
  TRACK 153 AUDIO
    TITLE "0:"
    INDEX 01 02:50:10
  TRACK 154 AUDIO
    TITLE "18:cjc135_0277"
    INDEX 01 02:51:13
  TRACK 155 AUDIO
    TITLE "0:"
    INDEX 01 02:52:22
  TRACK 156 AUDIO
    TITLE "19:cjc135_0278"
    INDEX 01 02:52:44
  TRACK 157 AUDIO
    TITLE "0:"
    INDEX 01 02:55:19
  TRACK 158 AUDIO
    TITLE "18:cjc135_0279"
    INDEX 01 02:56:20
  TRACK 159 AUDIO
    TITLE "0:"
    INDEX 01 02:57:39
  TRACK 160 AUDIO
    TITLE "19:cjc135_0280"
    INDEX 01 02:57:65
  TRACK 161 AUDIO
    TITLE "0:"
    INDEX 01 03:00:16
  TRACK 162 AUDIO
    TITLE "18:cjc135_0281"
    INDEX 01 03:01:15
  TRACK 163 AUDIO
    TITLE "0:"
    INDEX 01 03:02:23
  TRACK 164 AUDIO
    TITLE "19:cjc135_0282"
    INDEX 01 03:02:48
  TRACK 165 AUDIO
    TITLE "0:"
    INDEX 01 03:04:14
  TRACK 166 AUDIO
    TITLE "18:cjc135_0283"
    INDEX 01 03:05:15
  TRACK 167 AUDIO
    TITLE "0:"
    INDEX 01 03:06:22
  TRACK 168 AUDIO
    TITLE "19:cjc135_0284"
    INDEX 01 03:06:48
  TRACK 169 AUDIO
    TITLE "0:"
    INDEX 01 03:08:23
  TRACK 170 AUDIO
    TITLE "18:cjc135_0285"
    INDEX 01 03:09:23
  TRACK 171 AUDIO
    TITLE "0:"
    INDEX 01 03:10:32
  TRACK 172 AUDIO
    TITLE "19:cjc135_0286"
    INDEX 01 03:10:57
  TRACK 173 AUDIO
    TITLE "0:"
    INDEX 01 03:13:11
  TRACK 174 AUDIO
    TITLE "18:cjc135_0287"
    INDEX 01 03:14:12
  TRACK 175 AUDIO
    TITLE "0:"
    INDEX 01 03:15:27
  TRACK 176 AUDIO
    TITLE "19:cjc135_0288"
    INDEX 01 03:15:53
  TRACK 177 AUDIO
    TITLE "0:"
    INDEX 01 03:17:42
  TRACK 178 AUDIO
    TITLE "18:cjc135_0289"
    INDEX 01 03:18:39
  TRACK 179 AUDIO
    TITLE "0:"
    INDEX 01 03:19:43
  TRACK 180 AUDIO
    TITLE "19:cjc135_0290"
    INDEX 01 03:19:68
  TRACK 181 AUDIO
    TITLE "0:"
    INDEX 01 03:22:08
  TRACK 182 AUDIO
    TITLE "18:cjc135_0291"
    INDEX 01 03:23:09
  TRACK 183 AUDIO
    TITLE "0:"
    INDEX 01 03:24:18
  TRACK 184 AUDIO
    TITLE "19:cjc135_0292"
    INDEX 01 03:24:42
  TRACK 185 AUDIO
    TITLE "0:"
    INDEX 01 03:26:37
  TRACK 186 AUDIO
    TITLE "18:cjc135_0293"
    INDEX 01 03:27:38
  TRACK 187 AUDIO
    TITLE "0:"
    INDEX 01 03:28:40
  TRACK 188 AUDIO
    TITLE "19:cjc135_0294"
    INDEX 01 03:28:71
  TRACK 189 AUDIO
    TITLE "0:"
    INDEX 01 03:30:37
  TRACK 190 AUDIO
    TITLE "18:cjc135_0295"
    INDEX 01 03:31:38
  TRACK 191 AUDIO
    TITLE "0:"
    INDEX 01 03:32:69
  TRACK 192 AUDIO
    TITLE "19:cjc135_0296"
    INDEX 01 03:33:19
  TRACK 193 AUDIO
    TITLE "0:"
    INDEX 01 03:35:32
  TRACK 194 AUDIO
    TITLE "18:cjc135_0297"
    INDEX 01 03:36:31
  TRACK 195 AUDIO
    TITLE "0:"
    INDEX 01 03:37:46
  TRACK 196 AUDIO
    TITLE "19:cjc135_0298"
    INDEX 01 03:37:72
  TRACK 197 AUDIO
    TITLE "0:"
    INDEX 01 03:39:73
  TRACK 198 AUDIO
    TITLE "18:cjc135_0299"
    INDEX 01 03:40:72
  TRACK 199 AUDIO
    TITLE "0:"
    INDEX 01 03:42:12
  TRACK 200 AUDIO
    TITLE "19:cjc135_0300"
    INDEX 01 03:42:38
  TRACK 201 AUDIO
    TITLE "0:"
    INDEX 01 03:44:54
  TRACK 202 AUDIO
    TITLE "18:cjc135_0301"
    INDEX 01 03:45:54
  TRACK 203 AUDIO
    TITLE "0:"
    INDEX 01 03:46:67
  TRACK 204 AUDIO
    TITLE "19:cjc135_0302"
    INDEX 01 03:47:21
  TRACK 205 AUDIO
    TITLE "0:"
    INDEX 01 03:49:42
  TRACK 206 AUDIO
    TITLE "18:cjc135_0303"
    INDEX 01 03:50:41
  TRACK 207 AUDIO
    TITLE "0:"
    INDEX 01 03:51:52
  TRACK 208 AUDIO
    TITLE "19:cjc135_0304"
    INDEX 01 03:51:74
  TRACK 209 AUDIO
    TITLE "0:"
    INDEX 01 03:54:18
  TRACK 210 AUDIO
    TITLE "18:cjc135_0305"
    INDEX 01 03:55:17
  TRACK 211 AUDIO
    TITLE "0:"
    INDEX 01 03:56:22
  TRACK 212 AUDIO
    TITLE "19:cjc135_0306"
    INDEX 01 03:56:44
  TRACK 213 AUDIO
    TITLE "0:"
    INDEX 01 03:58:37
  TRACK 214 AUDIO
    TITLE "18:cjc135_0307"
    INDEX 01 03:59:36
  TRACK 215 AUDIO
    TITLE "0:"
    INDEX 01 04:00:44
  TRACK 216 AUDIO
    TITLE "19:cjc135_0308"
    INDEX 01 04:00:69
  TRACK 217 AUDIO
    TITLE "0:"
    INDEX 01 04:03:15
  TRACK 218 AUDIO
    TITLE "18:cjc135_0309"
    INDEX 01 04:04:14
  TRACK 219 AUDIO
    TITLE "0:"
    INDEX 01 04:05:27
  TRACK 220 AUDIO
    TITLE "19:cjc135_0310"
    INDEX 01 04:05:51
  TRACK 221 AUDIO
    TITLE "0:"
    INDEX 01 04:07:30
  TRACK 222 AUDIO
    TITLE "18:cjc135_0311"
    INDEX 01 04:08:27
  TRACK 223 AUDIO
    TITLE "0:"
    INDEX 01 04:09:45
  TRACK 224 AUDIO
    TITLE "19:cjc135_0312"
    INDEX 01 04:09:70
  TRACK 225 AUDIO
    TITLE "0:"
    INDEX 01 04:12:27
  TRACK 226 AUDIO
    TITLE "18:cjc135_0313"
    INDEX 01 04:13:27
  TRACK 227 AUDIO
    TITLE "0:"
    INDEX 01 04:14:44
  TRACK 228 AUDIO
    TITLE "19:cjc135_0314"
    INDEX 01 04:14:67
  TRACK 229 AUDIO
    TITLE "0:"
    INDEX 01 04:17:48
  TRACK 230 AUDIO
    TITLE "18:cjc135_0315"
    INDEX 01 04:18:47
  TRACK 231 AUDIO
    TITLE "0:"
    INDEX 01 04:19:53
  TRACK 232 AUDIO
    TITLE "19:cjc135_0316"
    INDEX 01 04:19:74
  TRACK 233 AUDIO
    TITLE "0:"
    INDEX 01 04:22:14
  TRACK 234 AUDIO
    TITLE "18:cjc135_0317"
    INDEX 01 04:23:13
  TRACK 235 AUDIO
    TITLE "0:"
    INDEX 01 04:24:09
  TRACK 236 AUDIO
    TITLE "19:cjc135_0318"
    INDEX 01 04:24:34
  TRACK 237 AUDIO
    TITLE "0:"
    INDEX 01 04:26:02
  TRACK 238 AUDIO
    TITLE "18:cjc135_0319"
    INDEX 01 04:26:74
  TRACK 239 AUDIO
    TITLE "0:"
    INDEX 01 04:28:09
  TRACK 240 AUDIO
    TITLE "19:cjc135_0320"
    INDEX 01 04:28:36
  TRACK 241 AUDIO
    TITLE "0:"
    INDEX 01 04:29:71
  TRACK 242 AUDIO
    TITLE "18:cjc135_0321"
    INDEX 01 04:30:72
  TRACK 243 AUDIO
    TITLE "0:"
    INDEX 01 04:32:14
  TRACK 244 AUDIO
    TITLE "19:cjc135_0322"
    INDEX 01 04:32:38
  TRACK 245 AUDIO
    TITLE "0:"
    INDEX 01 04:34:58
  TRACK 246 AUDIO
    TITLE "18:cjc135_0323"
    INDEX 01 04:35:60
  TRACK 247 AUDIO
    TITLE "0:"
    INDEX 01 04:36:73
  TRACK 248 AUDIO
    TITLE "19:cjc135_0324"
    INDEX 01 04:37:21
  TRACK 249 AUDIO
    TITLE "0:"
    INDEX 01 04:39:03
  TRACK 250 AUDIO
    TITLE "18:cjc135_0325"
    INDEX 01 04:40:02
  TRACK 251 AUDIO
    TITLE "0:"
    INDEX 01 04:41:07
  TRACK 252 AUDIO
    TITLE "19:cjc135_0326"
    INDEX 01 04:41:33
  TRACK 253 AUDIO
    TITLE "0:"
    INDEX 01 04:43:18
  TRACK 254 AUDIO
    TITLE "18:cjc135_0327"
    INDEX 01 04:44:17
  TRACK 255 AUDIO
    TITLE "0:"
    INDEX 01 04:45:33
  TRACK 256 AUDIO
    TITLE "19:cjc135_0328"
    INDEX 01 04:45:56
  TRACK 257 AUDIO
    TITLE "0:"
    INDEX 01 04:48:27
  TRACK 258 AUDIO
    TITLE "18:cjc135_0329"
    INDEX 01 04:49:24
  TRACK 259 AUDIO
    TITLE "0:"
    INDEX 01 04:50:30
  TRACK 260 AUDIO
    TITLE "19:cjc135_0330"
    INDEX 01 04:50:55
  TRACK 261 AUDIO
    TITLE "0:"
    INDEX 01 04:53:05
  TRACK 262 AUDIO
    TITLE "18:cjc135_0331"
    INDEX 01 04:54:08
  TRACK 263 AUDIO
    TITLE "0:"
    INDEX 01 04:55:15
  TRACK 264 AUDIO
    TITLE "19:cjc135_0332"
    INDEX 01 04:55:37
  TRACK 265 AUDIO
    TITLE "0:"
    INDEX 01 04:57:69
  TRACK 266 AUDIO
    TITLE "18:cjc135_0333"
    INDEX 01 04:58:70
  TRACK 267 AUDIO
    TITLE "0:"
    INDEX 01 05:00:26
  TRACK 268 AUDIO
    TITLE "19:cjc135_0334"
    INDEX 01 05:00:52
  TRACK 269 AUDIO
    TITLE "0:"
    INDEX 01 05:02:62
  TRACK 270 AUDIO
    TITLE "18:cjc135_0335"
    INDEX 01 05:03:64
  TRACK 271 AUDIO
    TITLE "0:"
    INDEX 01 05:04:63
  TRACK 272 AUDIO
    TITLE "19:cjc135_0336"
    INDEX 01 05:05:16
  TRACK 273 AUDIO
    TITLE "0:"
    INDEX 01 05:07:67
  TRACK 274 AUDIO
    TITLE "18:cjc135_0337"
    INDEX 01 05:08:67
  TRACK 275 AUDIO
    TITLE "0:"
    INDEX 01 05:10:05
  TRACK 276 AUDIO
    TITLE "19:cjc135_0338"
    INDEX 01 05:10:30
  TRACK 277 AUDIO
    TITLE "0:"
    INDEX 01 05:12:69
  TRACK 278 AUDIO
    TITLE "18:cjc135_0339"
    INDEX 01 05:13:70
  TRACK 279 AUDIO
    TITLE "0:"
    INDEX 01 05:15:12
  TRACK 280 AUDIO
    TITLE "19:cjc135_0340"
    INDEX 01 05:15:38
  TRACK 281 AUDIO
    TITLE "0:"
    INDEX 01 05:17:34
  TRACK 282 AUDIO
    TITLE "18:cjc135_0341"
    INDEX 01 05:18:34
  TRACK 283 AUDIO
    TITLE "0:"
    INDEX 01 05:19:41
  TRACK 284 AUDIO
    TITLE "19:cjc135_0342"
    INDEX 01 05:19:63
  TRACK 285 AUDIO
    TITLE "0:"
    INDEX 01 05:21:13
  TRACK 286 AUDIO
    TITLE "18:cjc135_0343"
    INDEX 01 05:22:14
  TRACK 287 AUDIO
    TITLE "0:"
    INDEX 01 05:23:19
  TRACK 288 AUDIO
    TITLE "19:cjc135_0344"
    INDEX 01 05:23:41
  TRACK 289 AUDIO
    TITLE "0:"
    INDEX 01 05:25:10
  TRACK 290 AUDIO
    TITLE "18:cjc135_0345"
    INDEX 01 05:26:10
  TRACK 291 AUDIO
    TITLE "0:"
    INDEX 01 05:27:27
  TRACK 292 AUDIO
    TITLE "19:cjc135_0346"
    INDEX 01 05:27:52
  TRACK 293 AUDIO
    TITLE "0:"
    INDEX 01 05:29:57
  TRACK 294 AUDIO
    TITLE "18:cjc135_0347"
    INDEX 01 05:30:57
  TRACK 295 AUDIO
    TITLE "0:"
    INDEX 01 05:31:62
  TRACK 296 AUDIO
    TITLE "19:cjc135_0348"
    INDEX 01 05:32:12
  TRACK 297 AUDIO
    TITLE "0:"
    INDEX 01 05:34:41
  TRACK 298 AUDIO
    TITLE "18:cjc135_0349"
    INDEX 01 05:35:40
  TRACK 299 AUDIO
    TITLE "0:"
    INDEX 01 05:36:48
  TRACK 300 AUDIO
    TITLE "19:cjc135_0350"
    INDEX 01 05:36:71
  TRACK 301 AUDIO
    TITLE "0:"
    INDEX 01 05:38:54
  TRACK 302 AUDIO
    TITLE "18:cjc135_0351"
    INDEX 01 05:39:54
  TRACK 303 AUDIO
    TITLE "0:"
    INDEX 01 05:40:63
  TRACK 304 AUDIO
    TITLE "19:cjc135_0352"
    INDEX 01 05:41:11
  TRACK 305 AUDIO
    TITLE "0:"
    INDEX 01 05:44:04
  TRACK 306 AUDIO
    TITLE "18:cjc135_0353"
    INDEX 01 05:45:01
  TRACK 307 AUDIO
    TITLE "0:"
    INDEX 01 05:45:72
  TRACK 308 AUDIO
    TITLE "19:cjc135_0354"
    INDEX 01 05:46:20
  TRACK 309 AUDIO
    TITLE "0:"
    INDEX 01 05:47:45
  TRACK 310 AUDIO
    TITLE "18:cjc135_0355"
    INDEX 01 05:48:45
  TRACK 311 AUDIO
    TITLE "0:"
    INDEX 01 05:49:56
  TRACK 312 AUDIO
    TITLE "19:cjc135_0356"
    INDEX 01 05:50:05
  TRACK 313 AUDIO
    TITLE "0:"
    INDEX 01 05:51:55
  TRACK 314 AUDIO
    TITLE "18:cjc135_0357"
    INDEX 01 05:52:54
  TRACK 315 AUDIO
    TITLE "0:"
    INDEX 01 05:53:54
  TRACK 316 AUDIO
    TITLE "19:cjc135_0358"
    INDEX 01 05:54:04
  TRACK 317 AUDIO
    TITLE "0:"
    INDEX 01 05:55:53
  TRACK 318 AUDIO
    TITLE "18:cjc135_0359"
    INDEX 01 05:56:54
  TRACK 319 AUDIO
    TITLE "0:"
    INDEX 01 05:57:48
  TRACK 320 AUDIO
    TITLE "19:cjc135_0360"
    INDEX 01 05:57:71
  TRACK 321 AUDIO
    TITLE "0:"
    INDEX 01 05:59:56
  TRACK 322 AUDIO
    TITLE "18:cjc135_0361"
    INDEX 01 06:00:58
  TRACK 323 AUDIO
    TITLE "0:"
    INDEX 01 06:01:65
  TRACK 324 AUDIO
    TITLE "19:cjc135_0362"
    INDEX 01 06:02:16
  TRACK 325 AUDIO
    TITLE "0:"
    INDEX 01 06:04:61
  TRACK 326 AUDIO
    TITLE "18:cjc135_0363"
    INDEX 01 06:05:63
  TRACK 327 AUDIO
    TITLE "0:"
    INDEX 01 06:07:01
  TRACK 328 AUDIO
    TITLE "19:cjc135_0364"
    INDEX 01 06:07:25
  TRACK 329 AUDIO
    TITLE "0:"
    INDEX 01 06:09:35
  TRACK 330 AUDIO
    TITLE "18:cjc135_0365"
    INDEX 01 06:10:35
  TRACK 331 AUDIO
    TITLE "0:"
    INDEX 01 06:11:54
  TRACK 332 AUDIO
    TITLE "19:cjc135_0366"
    INDEX 01 06:12:02
  TRACK 333 AUDIO
    TITLE "0:"
    INDEX 01 06:14:01
  TRACK 334 AUDIO
    TITLE "18:cjc135_0367"
    INDEX 01 06:15:01
  TRACK 335 AUDIO
    TITLE "0:"
    INDEX 01 06:16:10
  TRACK 336 AUDIO
    TITLE "19:cjc135_0368"
    INDEX 01 06:16:31
  TRACK 337 AUDIO
    TITLE "0:"
    INDEX 01 06:18:34
  TRACK 338 AUDIO
    TITLE "18:cjc135_0369"
    INDEX 01 06:19:34
  TRACK 339 AUDIO
    TITLE "0:"
    INDEX 01 06:20:41
  TRACK 340 AUDIO
    TITLE "19:cjc135_0370"
    INDEX 01 06:20:64
  TRACK 341 AUDIO
    TITLE "0:"
    INDEX 01 06:22:48
  TRACK 342 AUDIO
    TITLE "18:cjc135_0371"
    INDEX 01 06:23:49
  TRACK 343 AUDIO
    TITLE "0:"
    INDEX 01 06:24:60
  TRACK 344 AUDIO
    TITLE "19:cjc135_0372"
    INDEX 01 06:25:09
  TRACK 345 AUDIO
    TITLE "0:"
    INDEX 01 06:27:33
  TRACK 346 AUDIO
    TITLE "18:cjc135_0373"
    INDEX 01 06:28:33
  TRACK 347 AUDIO
    TITLE "0:"
    INDEX 01 06:29:44
  TRACK 348 AUDIO
    TITLE "19:cjc135_0374"
    INDEX 01 06:29:69
  TRACK 349 AUDIO
    TITLE "0:"
    INDEX 01 06:31:68
  TRACK 350 AUDIO
    TITLE "18:cjc135_0375"
    INDEX 01 06:32:70
  TRACK 351 AUDIO
    TITLE "0:"
    INDEX 01 06:34:06
  TRACK 352 AUDIO
    TITLE "19:cjc135_0376"
    INDEX 01 06:34:29
  TRACK 353 AUDIO
    TITLE "0:"
    INDEX 01 06:36:16
  TRACK 354 AUDIO
    TITLE "18:cjc135_0377"
    INDEX 01 06:37:14
  TRACK 355 AUDIO
    TITLE "0:"
    INDEX 01 06:38:27
  TRACK 356 AUDIO
    TITLE "19:cjc135_0378"
    INDEX 01 06:38:53
  TRACK 357 AUDIO
    TITLE "0:"
    INDEX 01 06:40:34
  TRACK 358 AUDIO
    TITLE "18:cjc135_0379"
    INDEX 01 06:41:35
  TRACK 359 AUDIO
    TITLE "0:"
    INDEX 01 06:42:52
  TRACK 360 AUDIO
    TITLE "19:cjc135_0380"
    INDEX 01 06:43:03
  TRACK 361 AUDIO
    TITLE "0:"
    INDEX 01 06:45:17
  TRACK 362 AUDIO
    TITLE "18:cjc135_0381"
    INDEX 01 06:46:17
  TRACK 363 AUDIO
    TITLE "0:"
    INDEX 01 06:47:42
  TRACK 364 AUDIO
    TITLE "19:cjc135_0382"
    INDEX 01 06:47:67
  TRACK 365 AUDIO
    TITLE "0:"
    INDEX 01 06:50:22
  TRACK 366 AUDIO
    TITLE "18:cjc135_0383"
    INDEX 01 06:51:22
  TRACK 367 AUDIO
    TITLE "0:"
    INDEX 01 06:52:25
  TRACK 368 AUDIO
    TITLE "19:cjc135_0384"
    INDEX 01 06:52:55
  TRACK 369 AUDIO
    TITLE "0:"
    INDEX 01 06:54:14
  TRACK 370 AUDIO
    TITLE "18:cjc135_0385"
    INDEX 01 06:55:12
  TRACK 371 AUDIO
    TITLE "0:"
    INDEX 01 06:56:19
  TRACK 372 AUDIO
    TITLE "19:cjc135_0386"
    INDEX 01 06:56:43
  TRACK 373 AUDIO
    TITLE "0:"
    INDEX 01 06:59:17
  TRACK 374 AUDIO
    TITLE "18:cjc135_0387"
    INDEX 01 07:00:17
  TRACK 375 AUDIO
    TITLE "0:"
    INDEX 01 07:01:14
  TRACK 376 AUDIO
    TITLE "19:cjc135_0388"
    INDEX 01 07:01:40
  TRACK 377 AUDIO
    TITLE "0:"
    INDEX 01 07:04:54
  TRACK 378 AUDIO
    TITLE "18:cjc135_0389"
    INDEX 01 07:05:55
  TRACK 379 AUDIO
    TITLE "0:"
    INDEX 01 07:06:45
  TRACK 380 AUDIO
    TITLE "19:cjc135_0390"
    INDEX 01 07:06:70
  TRACK 381 AUDIO
    TITLE "0:"
    INDEX 01 07:09:04
  TRACK 382 AUDIO
    TITLE "18:cjc135_0391"
    INDEX 01 07:10:02
  TRACK 383 AUDIO
    TITLE "0:"
    INDEX 01 07:11:13
  TRACK 384 AUDIO
    TITLE "19:cjc135_0392"
    INDEX 01 07:11:34
  TRACK 385 AUDIO
    TITLE "0:"
    INDEX 01 07:13:23
  TRACK 386 AUDIO
    TITLE "18:cjc135_0393"
    INDEX 01 07:14:23
  TRACK 387 AUDIO
    TITLE "0:"
    INDEX 01 07:15:24
  TRACK 388 AUDIO
    TITLE "19:cjc135_0394"
    INDEX 01 07:15:48
  TRACK 389 AUDIO
    TITLE "0:"
    INDEX 01 07:17:57
  TRACK 390 AUDIO
    TITLE "18:cjc135_0395"
    INDEX 01 07:18:58
  TRACK 391 AUDIO
    TITLE "0:"
    INDEX 01 07:20:00
  TRACK 392 AUDIO
    TITLE "19:cjc135_0396"
    INDEX 01 07:20:31
  TRACK 393 AUDIO
    TITLE "0:"
    INDEX 01 07:22:32
  TRACK 394 AUDIO
    TITLE "18:cjc135_0397"
    INDEX 01 07:23:30
  TRACK 395 AUDIO
    TITLE "0:"
    INDEX 01 07:24:23
  TRACK 396 AUDIO
    TITLE "19:cjc135_0398"
    INDEX 01 07:24:45
  TRACK 397 AUDIO
    TITLE "0:"
    INDEX 01 07:26:40
  TRACK 398 AUDIO
    TITLE "18:cjc135_0399"
    INDEX 01 07:27:37
  TRACK 399 AUDIO
    TITLE "0:"
    INDEX 01 07:28:35
  TRACK 400 AUDIO
    TITLE "19:cjc135_0400"
    INDEX 01 07:28:60
  TRACK 401 AUDIO
    TITLE "0:"
    INDEX 01 07:30:16
